<svg xmlns="http://www.w3.org/2000/svg" width="23" height="21" viewBox="0 0 23 21">
    <g data-name="Group 43">
        <path data-name="Path 310" d="m22.978 38.569-1.437-6a.725.725 0 0 0-.7-.568H2.156a.725.725 0 0 0-.7.568l-1.437 6A.764.764 0 0 0 0 38.75a3.863 3.863 0 0 0 1.437 3.05v10.45a.735.735 0 0 0 .719.75h7.188a.735.735 0 0 0 .719-.75V47h2.875v5.25a.735.735 0 0 0 .719.75h7.187a.735.735 0 0 0 .719-.75V41.8A3.863 3.863 0 0 0 23 38.75a.764.764 0 0 0-.022-.181zM20.125 51.5h-5.75v-5.25a.735.735 0 0 0-.719-.75H9.344a.735.735 0 0 0-.719.75v5.25h-5.75v-9.06a3.061 3.061 0 0 0 .539.06 3.312 3.312 0 0 0 2.7-1.45A3.312 3.312 0 0 0 8.8 42.5a3.312 3.312 0 0 0 2.7-1.45 3.229 3.229 0 0 0 5.391 0 3.312 3.312 0 0 0 2.7 1.45 3.061 3.061 0 0 0 .539-.06zM19.586 41a2.129 2.129 0 0 1-1.977-2.25.719.719 0 1 0-1.437 0A2.129 2.129 0 0 1 14.2 41a2.129 2.129 0 0 1-1.977-2.25.719.719 0 1 0-1.437 0A2.129 2.129 0 0 1 8.8 41a2.129 2.129 0 0 1-1.977-2.25.719.719 0 1 0-1.437 0A2.129 2.129 0 0 1 3.414 41a2.118 2.118 0 0 1-1.975-2.163L2.718 33.5h17.565l1.279 5.337A2.12 2.12 0 0 1 19.586 41z" transform="translate(0 -32)" style="fill:#003069"/>
    </g>
</svg>
