<svg xmlns="http://www.w3.org/2000/svg" width="24" height="24" viewBox="0 0 24 24">
    <path data-name="7738855_circle_chart_graph_analytics_statistics_icon" d="M23.452 13A.774.774 0 1 0 25 13 12 12 0 0 0 4.513 4.513 12 12 0 1 0 24.649 15.9a.774.774 0 1 0-1.5-.372 10.424 10.424 0 0 1-2.227 4.3l-1.65-1.65a8.124 8.124 0 0 0 0-10.347l1.65-1.651a10.374 10.374 0 0 1 2.53 6.82zm-3.871 0a6.522 6.522 0 0 1-1.929 4.65 6.579 6.579 0 0 1-7.421 1.319.774.774 0 0 0-.653 1.4 8.132 8.132 0 0 0 8.6-1.106l1.651 1.65A10.454 10.454 0 0 1 5.081 6.176l1.65 1.651a8.126 8.126 0 0 0 .279 10.668.774.774 0 0 0 1.141-1.047 6.574 6.574 0 0 1 .2-9.1 6.55 6.55 0 0 1 1.711-1.237.774.774 0 1 0-.693-1.384 8.089 8.089 0 0 0-1.541 1L6.176 5.081a10.462 10.462 0 0 1 13.649 0l-1.651 1.65A8.054 8.054 0 0 0 13 4.871a8.241 8.241 0 0 0-.855.045.774.774 0 0 0 .163 1.54 6.578 6.578 0 0 1 5.342 1.892A6.522 6.522 0 0 1 19.581 13z" transform="translate(-1 -1)" style="fill:#003069"/>
</svg>
