<svg xmlns="http://www.w3.org/2000/svg" width="30" height="21.004" viewBox="0 0 30 21.004">
    <g transform="translate(-3517 -7064)">
        <path data-name="8674936_ic_fluent_games_regular_icon" d="M21.5 5a10.5 10.5 0 0 1 .361 21H12.5a10.5 10.5 0 0 1-.361-21h.361zm.515 1.906L12.1 6.9a9.221 9.221 0 0 0-.93.057c-3.959.316-7.322 4.192-7.322 8.539a8.462 8.462 0 0 0 7.92 8.476l.332.007h9.913a8.452 8.452 0 0 0 8.254-8.479 8.568 8.568 0 0 0-7.92-8.589z" transform="translate(3514.998 7059)" style="fill:#182737"/>
        <path data-name="Line 7" transform="translate(3526 7071)" style="fill:none;stroke:#182737;stroke-linecap:round;stroke-width:1.7px" d="M0 0v7"/>
        <path data-name="Line 8" transform="rotate(90 -1772.5 5302)" style="fill:none;stroke:#182737;stroke-linecap:round;stroke-width:1.7px" d="M0 0v7"/>
        <circle data-name="Ellipse 31" cx="1.75" cy="1.75" r="1.75" transform="translate(3538 7070)" style="fill:#182737"/>
        <circle data-name="Ellipse 32" cx="1.75" cy="1.75" r="1.75" transform="translate(3536 7076)" style="fill:#182737"/>
    </g>
</svg>
